# xmcd
#
# Track frame offsets: 
#        225
#        15016
#        29123
#        46455
#        58679
#        78025
#        92674
#        108042
#        127736
#        144574
#        161487
#        183433
#
# Disc length: 2670 seconds
#
# Revision: 2
# Processed by: cddbd v1.5.2PL0 Copyright (c) Steve Scherf et al.
# Submitted via: ExactAudioCopyFreeDBPlugin 1.0
#
DISCID=8a0a6b0c
DTITLE=Rondo - Balta saule
DYEAR=2002
DGENRE=Pop/Rock
TTITLE0=Mes jega
TTITLE1=Aukstumos
TTITLE2=Nuo ausros
TTITLE3=Vakaras
TTITLE4=Tu turi zinoti
TTITLE5=Pirma karta
TTITLE6=Uoga saujoj
TTITLE7=Balta saule
TTITLE8=Karusele
TTITLE9=Audros mergaite
TTITLE10=Ieskosio taves
TTITLE11=Liudna daina
EXTD=
EXTT0=
EXTT1=
EXTT2=
EXTT3=
EXTT4=
EXTT5=
EXTT6=
EXTT7=
EXTT8=
EXTT9=
EXTT10=
EXTT11=
PLAYORDER=
